<?xml version="1.0" standalone="no"?>
<!DOCTYPE svg PUBLIC "-//W3C//DTD SVG 20010904//EN"
 "http://www.w3.org/TR/2001/REC-SVG-20010904/DTD/svg10.dtd">
<svg version="1.0" xmlns="http://www.w3.org/2000/svg"
 width="700.000000pt" height="700.000000pt" viewBox="0 0 700.000000 700.000000"
 preserveAspectRatio="xMidYMid meet">
<metadata>
Created by potrace 1.14, written by Peter Selinger 2001-2017
</metadata>
<g transform="translate(0.000000,700.000000) scale(0.100000,-0.100000)"
fill="#000000" stroke="none">
<path d="M3290 5466 c-74 -21 -93 -32 -142 -81 -55 -54 -78 -115 -78 -205 0
-202 178 -328 404 -287 144 26 235 130 242 275 6 138 -66 245 -196 291 -49 18
-177 21 -230 7z"/>
<path d="M4617 5474 c-1 -1 -15 -4 -32 -7 -89 -14 -165 -77 -189 -157 -13 -43
-15 -267 -15 -1683 -1 -1814 -5 -1698 66 -1771 56 -57 95 -71 198 -71 102 0
151 19 200 77 60 71 58 40 60 798 2 741 3 766 52 890 89 225 278 372 521 406
119 16 263 4 362 -30 98 -35 191 -129 230 -233 51 -135 52 -154 54 -973 l2
-765 24 -49 c42 -87 125 -129 247 -125 117 4 203 63 237 163 14 40 15 1535 2
1641 -70 551 -373 815 -921 800 -66 -2 -136 -6 -155 -10 -67 -13 -163 -37
-189 -47 -188 -76 -306 -164 -411 -303 -29 -38 -53 -71 -54 -72 -1 -1 -1 294
-2 655 0 361 -3 674 -7 694 -10 50 -85 132 -140 152 -35 13 -132 27 -140 20z"/>
<path d="M1309 4387 c-2 -3 -35 -7 -74 -11 -273 -25 -619 -136 -774 -250 -56
-41 -110 -116 -113 -155 -6 -114 3 -154 50 -203 24 -26 80 -52 112 -52 35 1
87 18 163 56 146 72 382 160 467 174 24 4 45 8 100 19 53 11 277 8 330 -5 159
-37 263 -127 301 -260 28 -99 30 -119 36 -272 4 -121 3 -148 -8 -148 -8 -1
-108 -3 -224 -4 -202 -4 -412 -13 -465 -21 -14 -2 -54 -7 -90 -10 -36 -3 -76
-8 -90 -10 -14 -2 -41 -7 -60 -10 -104 -16 -296 -69 -314 -86 -6 -5 -17 -9
-25 -10 -19 0 -136 -73 -177 -109 -67 -58 -121 -146 -148 -240 -23 -83 -27
-116 -28 -225 -1 -213 71 -387 221 -534 164 -162 401 -251 667 -251 326 0 573
132 714 382 17 32 33 58 33 58 1 0 2 -48 1 -107 -1 -164 25 -233 110 -289 81
-54 239 -43 314 22 80 68 77 33 76 874 0 878 -2 918 -60 1103 -45 140 -107
243 -207 339 -117 114 -297 195 -492 223 -52 7 -340 17 -346 12z m589 -1406
c10 -1 13 -27 11 -111 -4 -294 -100 -491 -301 -621 -215 -138 -533 -119 -695
42 -88 87 -123 179 -118 311 7 205 158 319 470 354 33 3 69 8 80 10 11 2 119
7 240 10 121 4 221 7 222 8 1 1 42 -1 91 -3z"/>
<path d="M3303 4366 c-66 -21 -120 -66 -148 -121 l-24 -50 -1 -1250 c0 -687
-3 -1272 -6 -1300 -17 -172 -101 -296 -231 -345 -57 -21 -89 -27 -200 -35
-231 -17 -293 -45 -320 -145 -16 -57 -1 -139 32 -179 45 -53 107 -74 220 -75
460 -3 755 117 903 369 53 90 96 218 107 325 4 30 9 66 11 80 9 51 4 2536 -5
2566 -20 68 -54 108 -122 144 -48 25 -161 33 -216 16z"/>
</g>
</svg>
